<svg width="12" height="12" viewBox="0 0 12 12" fill="none" xmlns="http://www.w3.org/2000/svg">
<path d="M11.5303 1.53039C11.8232 1.2375 11.8232 0.762627 11.5303 0.469733C11.2374 0.176839 10.7626 0.176838 10.4697 0.46973L11.5303 1.53039ZM0.469672 10.4697C0.176777 10.7626 0.176776 11.2374 0.469668 11.5303C0.762561 11.8232 1.23743 11.8232 1.53033 11.5303L0.469672 10.4697ZM10.4697 11.5303C10.7626 11.8232 11.2374 11.8232 11.5303 11.5303C11.8232 11.2374 11.8232 10.7625 11.5303 10.4696L10.4697 11.5303ZM1.53033 0.469668C1.23743 0.176776 0.762561 0.176777 0.469668 0.469672C0.176776 0.762566 0.176777 1.23744 0.469672 1.53033L1.53033 0.469668ZM10.4697 0.46973L0.469672 10.4697L1.53033 11.5303L11.5303 1.53039L10.4697 0.46973ZM11.5303 10.4696L1.53033 0.469668L0.469672 1.53033L10.4697 11.5303L11.5303 10.4696Z" fill="#000E08"/>
</svg>
